PathFileType	4	(X/Y/Z)	C:/Users/beibeiliu/ov580/test_trc/User3\sequence.8_training_dense_right.trc
DataRate	CameraRate	NumFrames	NumMarkers	Units	OrigDataRate	OrigDataStartFrame	OrigNumFrames
120	120	20	19	mm	120	54	161
Frame#	Time	ThumbCMC			ThumbMCP			ThumbIP			ThumbTip			IndexMCP			IndexPIP			IndexTip			MiddleMCP			MiddlePIP			MiddleTip			RingMCP			RingPIP			RingTip			PinkyMCP			PinkyPIP			PinkyTip			BackHand1			BackHand2			BackHand3	
		X0	Y0	Z0	X1	Y1	Z1	X2	Y2	Z2	X3	Y3	Z3	X4	Y4	Z4	X5	Y5	Z5	X6	Y6	Z6	X7	Y7	Z7	X8	Y8	Z8	X9	Y9	Z9	X10	Y10	Z10	X11	Y11	Z11	X12	Y12	Z12	X13	Y13	Z13	X14	Y14	Z14	X15	Y15	Z15	X16	Y16	Z16	X17	Y17	Z17	X18	Y18	Z18	
53	0.441667	41.0345	-48.8731	10.9141	18.1555	-50.4809	-10.3213	2.66975	-51.7544	-31.6767	-6.43628	-54.7893	-59.4429	61.2905	-10.9245	-48.028	56.9128	5.42139	-74.5085	47.0588	-7.57532	-101.545	84.6109	-9.73401	-52.8706	87.108	1.8128	-87.5843	78.8403	-20.8435	-113.902	104.857	-22.7002	-53.3121	106.754	-16.0875	-81.2527	90.76	-36.3791	-105.598	118.22	-49.6163	-46.7563	127.349	-48.4212	-72.0292	116.788	-58.8672	-95.8553	104.363	-38.1019	-10.3364	106.263	-43.7742	16.784	73.3167	-27.9272	5.60825	
54	0.45	43.8628	-50.8559	10.2908	22.8132	-52.6533	-10.1322	3.2928	-51.281	-34.6831	-5.09401	-56.7426	-54.5203	62.7735	-10.1347	-51.7706	54.073	3.11286	-80.2603	45.2318	-10.1531	-103.332	86.1876	-10.8335	-55.5661	86.3638	-1.47528	-89.2561	75.2192	-21.7989	-114.51	101.857	-24.511	-54.3164	108.207	-19.5954	-81.9808	95.2853	-37.8241	-105.377	118.724	-49.2281	-49.5543	124.633	-50.5197	-75.1663	115.535	-67.8158	-98.6436	101.289	-38.7853	-13.8492	107.608	-45.5246	16.5417	73.5599	-28.0072	2.478	
55	0.458333	44.9983	-51.1313	9.06631	23.8317	-51.6166	-13.9551	4.2106	-52.7113	-32.3189	-2.67069	-57.2482	-58.4348	60.3286	-11.9415	-51.2308	55.9253	0.385609	-79.7569	45.5739	-11.9177	-103.432	86.8124	-13.0255	-55.6559	86.5823	-2.61454	-87.203	76.9201	-27.3116	-116.715	104.764	-28.97	-52.5459	102.846	-19.442	-84.8659	96.9654	-42.2299	-107.252	117.23	-51.7462	-47.6956	126.557	-53.5057	-75.5917	115.031	-65.7359	-96.9325	103.871	-38.5551	-13.9868	107.3	-46.2652	16.7561	71.6926	-28.9537	3.14292	
56	0.466667	44.6383	-50.5184	9.45736	22.4037	-52.807	-12.771	5.53825	-51.8802	-34.4721	-3.76673	-56.7152	-56.8765	62.1576	-13.0777	-51.905	53.5389	0.412791	-76.5085	42.6175	-14.08	-104.515	86.4999	-14.1992	-54.7683	88.5928	-3.82917	-84.9208	76.5604	-25.5218	-114.969	100.815	-28.8444	-52.1471	107.649	-21.5979	-83.5964	98.1936	-42.1097	-105.853	115.521	-50.9983	-48.4729	126.551	-53.7818	-74.2921	116.587	-71.485	-95.0497	104.475	-41.2574	-11.5869	107.479	-44.8829	16.4574	75.0844	-30.759	2.88503	
57	0.475	43.0353	-51.3088	11.0924	20.5341	-51.21	-13.7043	1.0327	-50.894	-36.2106	-2.81041	-56.9046	-54.5312	58.5408	-14.3428	-49.3721	53.7368	0.0344365	-78.592	43.1167	-16.3488	-104.602	87.4384	-15.63	-55.483	86.3084	-3.81354	-88.2507	77.8832	-26.147	-114.968	103.194	-30.6961	-52.1362	106.264	-21.2762	-81.877	92.9703	-40.6477	-106.544	119.275	-51.6381	-49.0009	122.134	-51.729	-73.8606	112.797	-71.3097	-97.6099	100.5	-39.6152	-11.0632	107.053	-44.7987	13.6949	74.8628	-31.2538	3.15041	
58	0.483333	43.3208	-49.83	7.96712	20.8666	-51.6738	-11.2001	1.53538	-49.7529	-32.407	-1.96432	-55.095	-58.3615	60.3514	-14.2257	-50.4344	50.3732	2.26447	-78.9495	41.0186	-12.2447	-103.32	86.5984	-15.2211	-54.0066	89.6937	-3.23825	-88.8154	75.1644	-24.5108	-117.854	99.5173	-27.1536	-52.0502	107.568	-21.7526	-83.3258	96.3235	-38.2033	-105.963	118.713	-51.3627	-47.8902	124.647	-51.4858	-74.4666	117.039	-68.0243	-97.1688	103.065	-42.0235	-10.9024	107.23	-45.9332	18.5915	74.2714	-30.9472	5.11355	
59	0.491667	46.9257	-47.3148	5.88091	22.296	-45.8312	-14.5586	11.0876	-44.6457	-41.4291	4.22853	-48.9463	-62.304	61.1958	-6.78183	-50.312	57.6048	8.23369	-78.1379	50.0393	-5.79191	-105.928	91.44	-5.86356	-56.4715	93.4153	5.69089	-87.4378	84.442	-12.8782	-116.515	107.889	-20.8599	-52.7479	113.679	-13.4657	-82.9415	104.886	-32.5254	-106.578	122.974	-46.3205	-46.871	131.722	-45.2455	-73.1031	122.412	-57.8715	-95.1243	104.747	-34.9667	-15.6121	109.116	-41.6881	17.5002	77.9797	-26.7674	4.81714	
60	0.5	50.7348	-42.7012	2.23044	36.1761	-41.9311	-23.6716	19.4206	-39.2828	-48.0869	14.5209	-42.6521	-73.7721	74.0246	1.87553	-56.5596	65.2246	13.9859	-86.8212	57.1762	-2.57879	-112.2	98.5865	-0.261927	-56.2822	100.645	14.291	-87.4062	98.2269	-10.1507	-121.929	119.446	-11.7211	-57.1243	124.379	-7.16173	-84.4648	116.806	-27.5798	-109.585	134.349	-39.6829	-49.0243	138.996	-36.038	-77.3854	138.541	-52.5065	-97.2952	115.077	-27.8873	-15.5177	116.028	-35.1997	14.1928	84.4463	-19.5225	-1.90895	
61	0.508333	61.431	-44.6818	-10.2262	42.5589	-48.411	-32.0219	30.6593	-48.2644	-60.4924	33.9186	-53.746	-83.2241	83.3525	-8.95133	-65.3254	82.1962	1.5045	-99.7195	72.8199	-16.5645	-120.756	114.142	-8.95518	-65.8666	114.956	3.693	-100.207	111.444	-21.4427	-128.131	127.638	-18.3065	-62.9223	136.598	-12.8549	-89.7202	133.801	-36.5078	-113.961	145.053	-40.2321	-55.0654	156.521	-43.4807	-76.1865	150.332	-62.0872	-102.44	124.467	-31.0173	-22.0991	123.569	-34.7984	8.3236	89.4417	-22.0175	-9.33474	
62	0.516667	66.8302	-56.3494	-15.3569	53.0542	-66.0256	-39.1113	41.379	-71.707	-68.917	41.0824	-81.5847	-88.6775	94.9	-34.5645	-78.4721	93.0434	-31.3898	-110.407	84.6884	-57.5801	-130.683	123.386	-27.8468	-80.2245	125.496	-28.2377	-111.841	126.398	-63.2805	-132.391	139.474	-41.1997	-68.1964	145.741	-41.3614	-101.386	143.555	-72.7198	-116.449	156.314	-60.3848	-53.5382	165.852	-66.9891	-79.8798	159.274	-90.3166	-96.2957	129.558	-42.8685	-25.2277	129.941	-40.3895	5.07997	97.6959	-35.4654	-20.3199	
63	0.525	66.0429	-68.3652	-16.3345	52.1251	-82.2141	-36.9092	38.2135	-93.5256	-60.4636	36.1979	-110.286	-81.2854	95.6124	-65.8192	-83.0094	86.8836	-73.2213	-116.527	86.6918	-104.88	-123.46	123.105	-63.3912	-83.1007	126.529	-70.817	-113.375	124.13	-113.272	-122.24	139.301	-71.7354	-69.3129	147.66	-81.7056	-97.9293	141.32	-112.714	-103.794	154.621	-86.6775	-50.5202	162.456	-98.1635	-72.0438	157.021	-127.205	-80.233	131.055	-59.7875	-31.3261	128.472	-50.4833	0.755686	95.8983	-50.3661	-25.5198	
64	0.533333	62.6743	-68.3225	-4.98285	41.6762	-83.7099	-28.9033	25.3762	-95.8559	-44.8307	20.5384	-115.262	-63.7338	81.1121	-86.3072	-75.505	72.61	-103.835	-107.318	64.1013	-133.323	-105.398	107.824	-91.8764	-79.4382	111.069	-111.439	-105.49	93.8401	-146.331	-102.262	125.313	-101.421	-64.5232	128.755	-124.571	-90.1368	112.671	-148.196	-84.8629	137.801	-114.645	-44.1257	142.021	-136.492	-61.4207	127.8	-161.421	-57.0219	125.232	-81.6137	-28.1529	127.674	-63.958	-0.837264	95.2421	-61.2283	-21.8774	
65	0.541667	61.9825	-56.2188	-3.11768	39.165	-66.7144	-19.0681	17.0125	-72.0324	-36.4326	2.73012	-89.0242	-47.6478	66.8728	-94.8667	-65.5912	53.1818	-114.531	-91.9488	30.2375	-131.605	-86.6827	89.8872	-115.025	-69.9232	77.0192	-134.514	-89.6303	46.6936	-153.974	-76.8784	96.3618	-124.083	-55.261	85.704	-146.742	-72.7908	58.8212	-160.273	-57.8624	105.267	-138.598	-31.0893	95.0278	-163.811	-40.3174	71.6823	-170.542	-31.0383	111.322	-98.3577	-18.159	121.195	-79.6332	3.94188	95.8491	-69.4674	-21.8147	
66	0.55	72.9534	-40.3505	-5.03351	48.1392	-37.7301	-18.6968	22.921	-35.5485	-38.9927	2.9856	-46.7062	-45.1143	52.276	-88.4379	-62.0425	32.4682	-94.1988	-85.2089	-1.62831	-98.2033	-74.8391	61.0054	-111.844	-57.535	37.912	-127.292	-77.5044	1.90161	-127.334	-57.7948	63.2739	-127.679	-44.6146	37.8643	-143.217	-55.7594	11.9882	-136.903	-41.3284	64.9351	-138.075	-15.778	45.9649	-154.615	-21.8771	17.4465	-147.789	-7.69521	90.9022	-108.28	-13.0885	109.419	-94.1708	7.73537	93.5565	-70.7888	-16.5145	
67	0.558333	86.7169	-30.4455	-8.89219	65.2432	-18.3669	-25.0674	43.2483	-9.98595	-44.0935	22.0237	-5.90679	-52.081	46.7562	-70.3669	-62.4819	24.5552	-67.8511	-86.4521	-5.14955	-58.2347	-78.2591	41.022	-93.6947	-60.3954	15.6381	-100.701	-75.2015	-16.9385	-84.9363	-62.6691	38.3646	-107.017	-36.273	11.4282	-113.235	-52.5666	-14.4414	-96.1206	-40.8337	32.3159	-116.422	-8.17952	3.54229	-120.372	-17.1208	-15.8004	-104.453	-6.51203	72.8178	-97.4043	-8.37074	95.5077	-95.9181	12.9681	89.4762	-67.5056	-19.6845	
68	0.566667	96.4239	-27.7728	-10.4107	83.499	-11.234	-28.0363	72.0902	8.51761	-52.2559	50.7663	15.8674	-63.5774	50.8907	-54.2134	-64.9135	32.3425	-50.845	-91.9155	11.0525	-25.7467	-91.554	34.2572	-78.3303	-62.5954	10.7816	-74.249	-80.5557	-16.4654	-47.1713	-75.5212	25.3206	-85.7617	-40.7037	1.18417	-81.8672	-59.0469	-20.2919	-54.2775	-53.4157	14.6828	-87.169	-14.351	-8.21477	-84.8715	-21.8143	-26.8721	-58.3925	-19.1377	61.6759	-83.8303	-10.3292	78.2038	-88.7103	11.1743	84.91	-67.0356	-17.7102	
69	0.575	99.5572	-32.087	-11.6626	97.3415	-13.0494	-30.8346	92.8284	5.24832	-58.4256	79.1529	17.7322	-69.7358	62.9195	-49.6035	-73.7606	49.0244	-42.1404	-100.106	33.4263	-15.135	-103.422	41.215	-66.7127	-66.4299	21.1275	-59.9347	-91.1159	-2.79765	-29.1184	-89.1763	27.1057	-69.9322	-46.0783	6.9773	-63.9839	-68.5709	-12.2564	-34.4933	-65.8563	11.7107	-66.5843	-25.1283	-12.1771	-60.7764	-29.5183	-22.9004	-34.4244	-32.1007	53.0242	-76.7342	-12.9037	73.6034	-80.9267	12.618	89.0875	-63.2301	-14.7186	
70	0.583333	107.059	-40.3607	-6.77147	107.576	-22.6837	-32.1744	113.888	-7.22946	-58.4989	101.279	5.08692	-76.9006	72.6026	-62.8197	-73.6985	66.8585	-55.2573	-103.022	56.4461	-22.7037	-109.715	48.7564	-74.9183	-65.4912	37.7851	-69.609	-95.561	18.1873	-37.1518	-102.313	36.3996	-71.5549	-51.8781	18.5634	-67.9021	-76.8454	7.81109	-36.4111	-83.5926	17.1724	-65.5584	-32.4485	-4.91431	-54.0036	-44.9695	-10.0645	-31.5874	-51.906	53.3312	-76.9249	-13.7082	66.3916	-82.0075	12.1948	89.4931	-73.4728	-13.4206	
71	0.591667	113.195	-53.5333	-4.1301	120.175	-38.603	-28.0102	121.589	-27.8003	-56.9832	116.013	-16.3631	-80.1922	89.0476	-83.9571	-66.8743	81.5303	-81.3612	-99.4797	77.5953	-54.1994	-110.879	65.0809	-96.0434	-66.276	53.9073	-94.9128	-94.2855	40.1212	-57.436	-108.357	46.9297	-91.2314	-52.3921	29.9589	-88.8466	-75.8493	23.9221	-55.7204	-89.3737	26.8698	-79.1729	-31.8607	10.3352	-74.7966	-51.6949	3.65479	-50.8371	-61.4319	61.0309	-92.2418	-7.58176	71.5312	-91.6547	22.0037	96.5836	-84.1384	-2.99495	
72	0.6	123.263	-63.3116	4.15366	129.27	-51.7021	-27.0584	135.23	-43.5505	-53.9269	129.818	-35.6686	-77.0442	108.022	-103.282	-57.0111	107.507	-105.737	-93.8583	97.6702	-78.6731	-106.524	85.9563	-118.119	-58.1977	75.3851	-121.437	-89.0805	65.6257	-90.1411	-106.572	68.3655	-113.159	-46.8579	57.1986	-114.872	-78.0836	44.5319	-86.212	-89.7598	46.4038	-101.66	-32.5976	29.4783	-99.346	-57.4832	19.7496	-75.7599	-70.6051	76.2664	-107.669	-3.48831	79.2583	-105.064	22.4938	110.941	-97.0071	-0.853152	
